<?xml version="1.0" encoding="UTF-8" standalone="no"?>
<svg width="78px" height="30px" viewBox="0 0 78 30" version="1.1" xmlns="http://www.w3.org/2000/svg" xmlns:xlink="http://www.w3.org/1999/xlink" xmlns:sketch="http://www.bohemiancoding.com/sketch/ns">
    <!-- Generator: Sketch 3.4.4 (17249) - http://www.bohemiancoding.com/sketch -->
    <title>Grab_logo</title>
    <desc>Created with Sketch.</desc>
    <defs>
        <path id="path-1" d="M0,0.375333333 L77.4903103,0.375333333 L77.4903103,30 L0,30 L0,0.375333333 Z"></path>
    </defs>
    <g id="Page-1" stroke="none" stroke-width="1" fill="none" fill-rule="evenodd" sketch:type="MSPage">
        <g id="Artboard-1" sketch:type="MSArtboardGroup" transform="translate(-8.000000, -5.000000)">
            <g id="Grab_logo" sketch:type="MSLayerGroup" transform="translate(8.000000, 5.000000)">
                <path d="M45.6596534,12.1485333 C42.2303431,12.1485333 39.4445328,14.9118667 39.4445328,18.3112 L39.4445328,19.9765333 C39.4445328,23.3725333 42.2303431,26.1365333 45.6596534,26.1365333 C46.7059293,26.1365333 47.6863086,25.8738667 48.5517052,25.4185333 L48.5517052,23.0418667 C47.7474983,23.7158667 46.7852741,24.0785333 45.6596534,24.0785333 C43.3761362,24.0785333 41.5169121,22.2385333 41.5169121,19.9765333 L41.5169121,18.3112 C41.5169121,16.0478667 43.3761362,14.2052 45.6596534,14.2052 C47.9431707,14.2052 49.8003776,16.0478667 49.8003776,18.3112 L49.8003776,19.9765333 C49.8003776,20.0645333 49.7923086,20.1518667 49.7862569,20.2418667 L49.7949983,20.2418667 L49.7949983,24.5612 C49.7983603,24.5612 49.7983603,24.5585333 49.8003776,24.5572 L49.8003776,26.1138667 C49.7983603,26.1145333 49.7983603,26.1158667 49.7949983,26.1158667 L49.7949983,28.4798667 C49.7983603,28.4798667 49.7983603,28.4772 49.8003776,28.4772 L49.8003776,29.4752 L51.8781362,29.4752 L51.8781362,19.9765333 L51.8781362,18.3112 C51.8781362,14.9118667 49.0862741,12.1485333 45.6596534,12.1485333" id="Fill-1" fill="#00B140" sketch:type="MSShapeGroup"></path>
                <path d="M55.1797552,17.9685333 C54.9982034,12.9165333 50.7989793,8.8632 45.6597207,8.8632 C40.4061517,8.8632 36.1316172,13.1012 36.1316172,18.3112 L36.1316172,19.9765333 C36.1316172,25.1845333 40.4061517,29.4232 45.6597207,29.4232 C46.6575828,29.4232 47.6258586,29.2665333 48.5517724,28.9718667 L48.5517724,26.7798667 C47.6453586,27.1625333 46.6696862,27.3645333 45.6597207,27.3645333 C41.5499276,27.3645333 38.2066862,24.0498667 38.2066862,19.9765333 L38.2066862,18.3112 C38.2066862,14.2365333 41.5499276,10.9198667 45.6597207,10.9198667 C49.7688414,10.9198667 53.1114103,14.2365333 53.1114103,18.3112 L53.1114103,29.4745333 L55.189169,29.4745333 L55.189169,17.9685333 L55.1797552,17.9685333 Z" id="Fill-3" fill="#00B140" sketch:type="MSShapeGroup"></path>
                <path d="M62.3597224,9.14333333 C62.7867052,8.81866667 63.2291534,8.536 63.6937914,8.296 L63.6937914,0.375333333 L61.6200672,0.375333333 L61.6200672,9.72066667 C61.8668431,9.52733333 62.10555,9.338 62.3597224,9.14333333" id="Fill-5" fill="#00B140" sketch:type="MSShapeGroup"></path>
                <path d="M60.3830948,10.7230667 L60.3830948,0.375733333 L58.3053362,0.375733333 L58.3053362,12.5777333 C58.9374052,11.9677333 59.632681,11.3517333 60.3830948,10.7230667" id="Fill-7" fill="#00B140" sketch:type="MSShapeGroup"></path>
                <path d="M34.6461879,14.4044 C34.8116017,14.4490667 34.992481,14.5024 35.1578948,14.5570667 C35.4450155,13.8770667 35.7738259,13.2637333 36.1187741,12.7170667 C35.7637397,12.5804 35.4107224,12.4764 35.2056362,12.4224 C34.6172741,12.2410667 34.0033603,12.1504 33.3773431,12.1504 C29.8317052,12.1504 27.1628948,14.7997333 27.1628948,18.3117333 L27.1628948,29.4750667 L29.236619,29.4750667 L29.236619,18.3117333 C29.236619,15.9330667 30.9822052,14.2077333 33.3773431,14.2077333 C33.799619,14.2077333 34.212481,14.2690667 34.6065155,14.3910667 L34.6461879,14.4044 Z" id="Fill-9" fill="#00B140" sketch:type="MSShapeGroup"></path>
                <path d="M36.7934741,11.7422667 C37.2984569,11.0802667 37.8020948,10.5509333 38.2169741,10.1582667 C37.8794224,9.95693333 37.2702155,9.66893333 36.131819,9.26893333 L36.0780259,9.25093333 C35.2059052,8.99426667 34.2981466,8.8636 33.3776121,8.8636 C27.8564224,8.8636 23.8481638,12.8382667 23.8481638,18.3116 L23.8481638,29.4749333 L25.9218879,29.4749333 L25.9218879,18.3116 C25.9218879,13.9596 28.9901121,10.9222667 33.3776121,10.9222667 C34.0883534,10.9222667 34.7883362,11.0209333 35.4620948,11.2142667 C35.9462328,11.3869333 36.4498707,11.5862667 36.7934741,11.7422667" id="Fill-11" fill="#00B140" sketch:type="MSShapeGroup"></path>
                <path d="M67.9615345,12.1502 C66.1224828,12.1502 64.4757414,12.9488667 63.3333103,14.2088667 L63.324569,14.1962 C61.7672586,15.6802 58.7017241,19.2128667 56.4289655,22.1335333 L56.4289655,25.5248667 C56.5977414,25.2995333 56.7752586,25.0642 56.9635345,24.8182 L56.9494138,24.8088667 C57.0785172,24.6395333 58.8281379,22.3395333 60.7936034,19.9848667 C61.1150172,19.5948667 61.436431,19.2088667 61.7437241,18.8422 L61.7437241,18.8608667 C62.9231379,17.4935333 64.0965,16.2222 64.9793793,15.4702 C65.7324828,14.6922 66.7888448,14.2075333 67.9615345,14.2075333 C70.2437069,14.2075333 72.1002414,16.0502 72.1002414,18.3115333 L72.1002414,19.9768667 C72.1002414,22.2408667 70.2437069,24.0802 67.9615345,24.0802 C65.676,24.0802 63.8187931,22.2408667 63.8187931,19.9768667 L63.8187931,18.5888667 C63.1712586,19.3082 62.4840517,20.1088667 61.8237414,20.9035333 C62.2762759,23.8622 64.8496034,26.1388667 67.9615345,26.1388667 C71.3901724,26.1388667 74.1759828,23.3735333 74.1759828,19.9768667 L74.1759828,18.3115333 C74.1759828,14.9142 71.3901724,12.1502 67.9615345,12.1502" id="Fill-13" fill="#00B140" sketch:type="MSShapeGroup"></path>
                <path d="M67.9615345,8.8634 C66.2051897,8.8634 64.2390517,9.46073333 63.2042069,10.2274 C61.1002241,11.7880667 59.4306207,13.3187333 58.079069,14.7820667 C57.4833103,15.4680667 56.931931,16.1567333 56.4289655,16.8114 L56.4289655,20.2200667 C58.3648448,17.4154 60.9859138,14.3080667 63.414,12.4580667 C64.7366379,11.4520667 66.3094138,10.9214 67.9615345,10.9214 C72.0713276,10.9214 75.4138966,14.2380667 75.4138966,18.3107333 L75.4138966,19.9760667 C75.4138966,24.0520667 72.0713276,27.3660667 67.9615345,27.3660667 C64.6001379,27.3660667 61.7618793,25.1420667 60.8413448,22.1027333 C60.2818966,22.7900667 59.7688448,23.4354 59.3364828,23.9820667 C60.8601724,27.1954 64.1509655,29.4227333 67.9615345,29.4227333 C73.2151034,29.4227333 77.4903103,25.1867333 77.4903103,19.9760667 L77.4903103,18.3107333 C77.4903103,13.1020667 73.2151034,8.8634 67.9615345,8.8634" id="Fill-15" fill="#00B140" sketch:type="MSShapeGroup"></path>
                <mask id="mask-2" sketch:name="Clip 18" fill="white">
                    <use xlink:href="#path-1"></use>
                </mask>
                <g id="Clip-18"></g>
                <path d="M17.171431,21.0086667 L12.1242931,21.0086667 L12.1242931,19.03 L17.171431,19.03 L17.171431,21.0086667 Z" id="Fill-17" fill="#00B140" sketch:type="MSShapeGroup" mask="url(#mask-2)"></path>
                <path d="M12.5865776,9.96853333 C15.8988879,9.96853333 18.3014224,10.5452 19.3530776,11.5898667 L19.4304052,11.5165333 L19.4304052,9.13986667 C17.8361121,8.32186667 15.5465431,7.90586667 12.5865776,7.90586667 C7.55019828,7.90586667 3.29650862,12.0798667 3.29650862,17.0225333 L3.29650862,17.6158667 C3.29650862,22.5572 7.34780172,26.7305333 12.1441293,26.7305333 C16.2404741,26.7305333 17.8730948,25.3025333 18.0459052,25.1385333 L18.370681,24.8345333 L18.370681,19.0312 L16.2902328,19.0312 L16.2902328,23.8465333 C15.7294397,24.1505333 14.4424397,24.6665333 12.1441293,24.6665333 C8.47543966,24.6665333 5.37493966,21.4372 5.37493966,17.6118667 L5.37493966,17.0225333 C5.37493966,13.1985333 8.67918103,9.96853333 12.5865776,9.96853333" id="Fill-19" fill="#00B140" sketch:type="MSShapeGroup" mask="url(#mask-2)"></path>
                <path d="M12.1242931,17.8666667 L19.5847241,17.8666667 L19.5847241,25.362 C18.9472759,26.0286667 16.7296552,27.9346667 12.1437931,27.9346667 C6.6885,27.9346667 2.0817931,23.2086667 2.0817931,17.6146667 L2.08112069,17.0226667 C2.08112069,11.4273333 6.89224138,6.702 12.5869138,6.702 C15.2853103,6.702 17.7241552,7.17 19.430069,8.00533333 L19.430069,5.75866667 C17.541931,5.038 15.1515,4.63866667 12.5869138,4.63866667 C5.76258621,4.63866667 0,10.3106667 0,17.024 L0,17.6153333 C0,24.3266667 5.56086207,30 12.1437931,30 C18.7213448,30 21.3578793,26.4946667 21.4661379,26.3473333 L21.6658448,26.0766667 L21.6658448,15.804 L12.1242931,15.804 L12.1242931,17.8666667 Z" id="Fill-20" fill="#00B140" sketch:type="MSShapeGroup" mask="url(#mask-2)"></path>
            </g>
        </g>
    </g>
</svg>
